<svg xmlns="http://www.w3.org/2000/svg" width="1200" height="720" viewBox="0 0 1200 720">
<rect x="0.0" y="0.0" width="1200.0" height="720.0" fill="#ffffff" rx="0"/>
<text x="600.0" y="58" font-family="Inter, PingFang SC, Microsoft YaHei, Arial, sans-serif" font-size="30" fill="#10202b" text-anchor="middle" font-weight="bold">两条地铁线路日均载客量</text>
<line x1="90.0" y1="630.0" x2="1150.0" y2="630.0" stroke="#eef0ef" stroke-width="1"/>
<line x1="90.0" y1="630.0" x2="84.0" y2="630.0" stroke="#d9ddd8" stroke-width="2"/>
<text x="78" y="638.0" font-family="Inter, PingFang SC, Microsoft YaHei, Arial, sans-serif" font-size="20" fill="#63717d" text-anchor="end" font-weight="normal">80</text>
<line x1="90.0" y1="507.5" x2="1150.0" y2="507.5" stroke="#eef0ef" stroke-width="1"/>
<line x1="90.0" y1="507.5" x2="84.0" y2="507.5" stroke="#d9ddd8" stroke-width="2"/>
<text x="78" y="515.5" font-family="Inter, PingFang SC, Microsoft YaHei, Arial, sans-serif" font-size="20" fill="#63717d" text-anchor="end" font-weight="normal">85</text>
<line x1="90.0" y1="385.0" x2="1150.0" y2="385.0" stroke="#eef0ef" stroke-width="1"/>
<line x1="90.0" y1="385.0" x2="84.0" y2="385.0" stroke="#d9ddd8" stroke-width="2"/>
<text x="78" y="393.0" font-family="Inter, PingFang SC, Microsoft YaHei, Arial, sans-serif" font-size="20" fill="#63717d" text-anchor="end" font-weight="normal">90</text>
<line x1="90.0" y1="262.5" x2="1150.0" y2="262.5" stroke="#eef0ef" stroke-width="1"/>
<line x1="90.0" y1="262.5" x2="84.0" y2="262.5" stroke="#d9ddd8" stroke-width="2"/>
<text x="78" y="270.5" font-family="Inter, PingFang SC, Microsoft YaHei, Arial, sans-serif" font-size="20" fill="#63717d" text-anchor="end" font-weight="normal">95</text>
<line x1="90.0" y1="140.0" x2="1150.0" y2="140.0" stroke="#eef0ef" stroke-width="1"/>
<line x1="90.0" y1="140.0" x2="84.0" y2="140.0" stroke="#d9ddd8" stroke-width="2"/>
<text x="78" y="148.0" font-family="Inter, PingFang SC, Microsoft YaHei, Arial, sans-serif" font-size="20" fill="#63717d" text-anchor="end" font-weight="normal">100</text>
<line x1="90.0" y1="630.0" x2="1150.0" y2="630.0" stroke="#10202b" stroke-width="2"/>
<line x1="90.0" y1="140.0" x2="90.0" y2="630.0" stroke="#10202b" stroke-width="2"/>
<text x="355.0" y="674" font-family="Inter, PingFang SC, Microsoft YaHei, Arial, sans-serif" font-size="22" fill="#10202b" text-anchor="middle" font-weight="normal">1号线</text>
<text x="885.0" y="674" font-family="Inter, PingFang SC, Microsoft YaHei, Arial, sans-serif" font-size="22" fill="#10202b" text-anchor="middle" font-weight="normal">2号线</text>
<text x="70" y="120" font-family="Inter, PingFang SC, Microsoft YaHei, Arial, sans-serif" font-size="20" fill="#63717d" text-anchor="start" font-weight="normal">万人次/日</text>
<rect x="222.5" y="336.0" width="265.0" height="294.0" fill="#4f7899" rx="8"/>
<text x="355.0" y="322.0" font-family="Inter, PingFang SC, Microsoft YaHei, Arial, sans-serif" font-size="24" fill="#10202b" text-anchor="middle" font-weight="bold">92</text>
<rect x="752.5" y="556.5" width="265.0" height="73.5" fill="#4f7899" rx="8"/>
<text x="885.0" y="542.5" font-family="Inter, PingFang SC, Microsoft YaHei, Arial, sans-serif" font-size="24" fill="#10202b" text-anchor="middle" font-weight="bold">83</text>
</svg>