<svg xmlns="http://www.w3.org/2000/svg" width="1200" height="720" viewBox="0 0 1200 720">
<rect x="0.0" y="0.0" width="1200.0" height="720.0" fill="#ffffff" rx="0"/>
<text x="600.0" y="58.0" font-family="Inter, PingFang SC, Microsoft YaHei, Arial, sans-serif" font-size="30" fill="#10202b" text-anchor="middle" font-weight="bold">四款产品季度销量</text>
<line x1="90.0" y1="630.0" x2="1150.0" y2="630.0" stroke="#eef0ef" stroke-width="1"/>
<line x1="90.0" y1="630.0" x2="84.0" y2="630.0" stroke="#d9ddd8" stroke-width="2"/>
<text x="78.0" y="638.0" font-family="Inter, PingFang SC, Microsoft YaHei, Arial, sans-serif" font-size="20" fill="#63717d" text-anchor="end" font-weight="normal">0</text>
<line x1="90.0" y1="493.9" x2="1150.0" y2="493.9" stroke="#eef0ef" stroke-width="1"/>
<line x1="90.0" y1="493.9" x2="84.0" y2="493.9" stroke="#d9ddd8" stroke-width="2"/>
<text x="78.0" y="501.9" font-family="Inter, PingFang SC, Microsoft YaHei, Arial, sans-serif" font-size="20" fill="#63717d" text-anchor="end" font-weight="normal">50</text>
<line x1="90.0" y1="357.8" x2="1150.0" y2="357.8" stroke="#eef0ef" stroke-width="1"/>
<line x1="90.0" y1="357.8" x2="84.0" y2="357.8" stroke="#d9ddd8" stroke-width="2"/>
<text x="78.0" y="365.8" font-family="Inter, PingFang SC, Microsoft YaHei, Arial, sans-serif" font-size="20" fill="#63717d" text-anchor="end" font-weight="normal">100</text>
<line x1="90.0" y1="221.7" x2="1150.0" y2="221.7" stroke="#eef0ef" stroke-width="1"/>
<line x1="90.0" y1="221.7" x2="84.0" y2="221.7" stroke="#d9ddd8" stroke-width="2"/>
<text x="78.0" y="229.7" font-family="Inter, PingFang SC, Microsoft YaHei, Arial, sans-serif" font-size="20" fill="#63717d" text-anchor="end" font-weight="normal">150</text>
<line x1="90.0" y1="630.0" x2="1150.0" y2="630.0" stroke="#10202b" stroke-width="2"/>
<line x1="90.0" y1="140.0" x2="90.0" y2="630.0" stroke="#10202b" stroke-width="2"/>
<text x="222.5" y="674.0" font-family="Inter, PingFang SC, Microsoft YaHei, Arial, sans-serif" font-size="22" fill="#10202b" text-anchor="middle" font-weight="normal">产品A</text>
<text x="487.5" y="674.0" font-family="Inter, PingFang SC, Microsoft YaHei, Arial, sans-serif" font-size="22" fill="#10202b" text-anchor="middle" font-weight="normal">产品B</text>
<text x="752.5" y="674.0" font-family="Inter, PingFang SC, Microsoft YaHei, Arial, sans-serif" font-size="22" fill="#10202b" text-anchor="middle" font-weight="normal">产品C</text>
<text x="1017.5" y="674.0" font-family="Inter, PingFang SC, Microsoft YaHei, Arial, sans-serif" font-size="22" fill="#10202b" text-anchor="middle" font-weight="normal">产品D</text>
<text x="70.0" y="120.0" font-family="Inter, PingFang SC, Microsoft YaHei, Arial, sans-serif" font-size="20" fill="#63717d" text-anchor="start" font-weight="normal">销量（千件）</text>
<rect x="957.9" y="208.1" width="119.2" height="421.9" fill="#4f7899" rx="6"/>
<polygon points="957.9,208.1 1077.1,208.1 1118.9,222.7 999.6,222.7" fill="#6a9cc9"/>
<polygon points="1077.1,208.1 1077.1,630.0 1118.9,630.0 1118.9,222.7" fill="#365c7a"/>
<text x="1017.5" y="194.1" font-family="Inter, PingFang SC, Microsoft YaHei, Arial, sans-serif" font-size="24" fill="#10202b" text-anchor="middle" font-weight="bold">155</text>
<rect x="692.9" y="330.6" width="119.2" height="299.4" fill="#4f7899" rx="6"/>
<polygon points="692.9,330.6 812.1,330.6 853.9,345.2 734.6,345.2" fill="#6a9cc9"/>
<polygon points="812.1,330.6 812.1,630.0 853.9,630.0 853.9,345.2" fill="#365c7a"/>
<text x="752.5" y="316.6" font-family="Inter, PingFang SC, Microsoft YaHei, Arial, sans-serif" font-size="24" fill="#10202b" text-anchor="middle" font-weight="bold">110</text>
<rect x="427.9" y="425.8" width="119.2" height="204.2" fill="#4f7899" rx="6"/>
<polygon points="427.9,425.8 547.1,425.8 588.9,440.4 469.6,440.4" fill="#6a9cc9"/>
<polygon points="547.1,425.8 547.1,630.0 588.9,630.0 588.9,440.4" fill="#365c7a"/>
<text x="487.5" y="411.8" font-family="Inter, PingFang SC, Microsoft YaHei, Arial, sans-serif" font-size="24" fill="#10202b" text-anchor="middle" font-weight="bold">75</text>
<rect x="162.9" y="507.5" width="119.2" height="122.5" fill="#4f7899" rx="6"/>
<polygon points="162.9,507.5 282.1,507.5 323.9,522.1 204.6,522.1" fill="#6a9cc9"/>
<polygon points="282.1,507.5 282.1,630.0 323.9,630.0 323.9,522.1" fill="#365c7a"/>
<text x="222.5" y="493.5" font-family="Inter, PingFang SC, Microsoft YaHei, Arial, sans-serif" font-size="24" fill="#10202b" text-anchor="middle" font-weight="bold">45</text>
</svg>