<svg xmlns="http://www.w3.org/2000/svg" width="1200" height="720" viewBox="0 0 1200 720">
<rect x="0.0" y="0.0" width="1200.0" height="720.0" fill="#ffffff" rx="0"/>
<text x="600.0" y="58.0" font-family="Inter, PingFang SC, Microsoft YaHei, Arial, sans-serif" font-size="30" fill="#10202b" text-anchor="middle" font-weight="bold">五家门店季度销售额</text>
<line x1="90.0" y1="630.0" x2="1150.0" y2="630.0" stroke="#eef0ef" stroke-width="1"/>
<line x1="90.0" y1="630.0" x2="84.0" y2="630.0" stroke="#d9ddd8" stroke-width="2"/>
<text x="78.0" y="638.0" font-family="Inter, PingFang SC, Microsoft YaHei, Arial, sans-serif" font-size="20" fill="#63717d" text-anchor="end" font-weight="normal">0</text>
<line x1="90.0" y1="493.9" x2="1150.0" y2="493.9" stroke="#eef0ef" stroke-width="1"/>
<line x1="90.0" y1="493.9" x2="84.0" y2="493.9" stroke="#d9ddd8" stroke-width="2"/>
<text x="78.0" y="501.9" font-family="Inter, PingFang SC, Microsoft YaHei, Arial, sans-serif" font-size="20" fill="#63717d" text-anchor="end" font-weight="normal">50</text>
<line x1="90.0" y1="357.8" x2="1150.0" y2="357.8" stroke="#eef0ef" stroke-width="1"/>
<line x1="90.0" y1="357.8" x2="84.0" y2="357.8" stroke="#d9ddd8" stroke-width="2"/>
<text x="78.0" y="365.8" font-family="Inter, PingFang SC, Microsoft YaHei, Arial, sans-serif" font-size="20" fill="#63717d" text-anchor="end" font-weight="normal">100</text>
<line x1="90.0" y1="221.7" x2="1150.0" y2="221.7" stroke="#eef0ef" stroke-width="1"/>
<line x1="90.0" y1="221.7" x2="84.0" y2="221.7" stroke="#d9ddd8" stroke-width="2"/>
<text x="78.0" y="229.7" font-family="Inter, PingFang SC, Microsoft YaHei, Arial, sans-serif" font-size="20" fill="#63717d" text-anchor="end" font-weight="normal">150</text>
<line x1="90.0" y1="630.0" x2="1150.0" y2="630.0" stroke="#10202b" stroke-width="2"/>
<line x1="90.0" y1="140.0" x2="90.0" y2="630.0" stroke="#10202b" stroke-width="2"/>
<text x="196.0" y="674.0" font-family="Inter, PingFang SC, Microsoft YaHei, Arial, sans-serif" font-size="22" fill="#10202b" text-anchor="middle" font-weight="normal">门店A</text>
<text x="408.0" y="674.0" font-family="Inter, PingFang SC, Microsoft YaHei, Arial, sans-serif" font-size="22" fill="#10202b" text-anchor="middle" font-weight="normal">门店B</text>
<text x="620.0" y="674.0" font-family="Inter, PingFang SC, Microsoft YaHei, Arial, sans-serif" font-size="22" fill="#10202b" text-anchor="middle" font-weight="normal">门店C</text>
<text x="832.0" y="674.0" font-family="Inter, PingFang SC, Microsoft YaHei, Arial, sans-serif" font-size="22" fill="#10202b" text-anchor="middle" font-weight="normal">门店D</text>
<text x="1044.0" y="674.0" font-family="Inter, PingFang SC, Microsoft YaHei, Arial, sans-serif" font-size="22" fill="#10202b" text-anchor="middle" font-weight="normal">门店E</text>
<text x="70.0" y="120.0" font-family="Inter, PingFang SC, Microsoft YaHei, Arial, sans-serif" font-size="20" fill="#63717d" text-anchor="start" font-weight="normal">销售额（万元）</text>
<rect x="996.3" y="221.7" width="95.4" height="408.3" fill="#4f7899" rx="6"/>
<polygon points="996.3,221.7 1091.7,221.7 1125.1,233.4 1029.7,233.4" fill="#6a9cc9"/>
<polygon points="1091.7,221.7 1091.7,630.0 1125.1,630.0 1125.1,233.4" fill="#365c7a"/>
<text x="1044.0" y="207.7" font-family="Inter, PingFang SC, Microsoft YaHei, Arial, sans-serif" font-size="24" fill="#10202b" text-anchor="middle" font-weight="bold">150</text>
<rect x="784.3" y="330.6" width="95.4" height="299.4" fill="#4f7899" rx="6"/>
<polygon points="784.3,330.6 879.7,330.6 913.1,342.2 817.7,342.2" fill="#6a9cc9"/>
<polygon points="879.7,330.6 879.7,630.0 913.1,630.0 913.1,342.2" fill="#365c7a"/>
<text x="832.0" y="316.6" font-family="Inter, PingFang SC, Microsoft YaHei, Arial, sans-serif" font-size="24" fill="#10202b" text-anchor="middle" font-weight="bold">110</text>
<rect x="572.3" y="412.2" width="95.4" height="217.8" fill="#4f7899" rx="6"/>
<polygon points="572.3,412.2 667.7,412.2 701.1,423.9 605.7,423.9" fill="#6a9cc9"/>
<polygon points="667.7,412.2 667.7,630.0 701.1,630.0 701.1,423.9" fill="#365c7a"/>
<text x="620.0" y="398.2" font-family="Inter, PingFang SC, Microsoft YaHei, Arial, sans-serif" font-size="24" fill="#10202b" text-anchor="middle" font-weight="bold">80</text>
<rect x="360.3" y="480.3" width="95.4" height="149.7" fill="#4f7899" rx="6"/>
<polygon points="360.3,480.3 455.7,480.3 489.1,492.0 393.7,492.0" fill="#6a9cc9"/>
<polygon points="455.7,480.3 455.7,630.0 489.1,630.0 489.1,492.0" fill="#365c7a"/>
<text x="408.0" y="466.3" font-family="Inter, PingFang SC, Microsoft YaHei, Arial, sans-serif" font-size="24" fill="#10202b" text-anchor="middle" font-weight="bold">55</text>
<rect x="148.3" y="534.7" width="95.4" height="95.3" fill="#4f7899" rx="6"/>
<polygon points="148.3,534.7 243.7,534.7 277.1,546.4 181.7,546.4" fill="#6a9cc9"/>
<polygon points="243.7,534.7 243.7,630.0 277.1,630.0 277.1,546.4" fill="#365c7a"/>
<text x="196.0" y="520.7" font-family="Inter, PingFang SC, Microsoft YaHei, Arial, sans-serif" font-size="24" fill="#10202b" text-anchor="middle" font-weight="bold">35</text>
</svg>